# xmcd CD database file
#
# Track frame offsets:
#	150
#	16302
#	36870
#	53226
#	70625
#	86092
#	100186
#	117112
#	133158
#	148305
#	165752
#	181943
#	196876
#	210352
#	226755
#	242151
#	261285
#	279123
#	299030
#	314012
#	329570
#	344077
#
# Disc length: 4741 seconds
#
# Revision: 0
# Processed by: cddbd v1.5.1PL2 Copyright (c) Steve Scherf et al.
# Submitted via: CDex 1.51
#
DISCID=4a128316
DTITLE=Various Artist - Now 62
DYEAR=2005
DGENRE=Blues
TTITLE0=Push The Button
TTITLE1=Tripping
TTITLE2=_03_-_pussycat_dolls_ft_busta_rhymes_-_dont_cha
TTITLE3=_04_-_daniel_powter_-_bad_day
TTITLE4=_05_-_david_gray_-_the_one_i_love
TTITLE5=_06_-_kelly_clarkson_-_since_u_been_gone
TTITLE6=_07_-_will_young_-_switch_it_on
TTITLE7=_08_-_girls_aloud_-_biology
TTITLE8=_09_-_mcfly_-_ill_be_ok
TTITLE9=_10_-_kaiser_chiefs_-_i_predict_a_riot
TTITLE10=_11_-_franz_ferdinand_-_do_you_want_to
TTITLE11=_12_-_kt_tunstall_-_suddenly_i_see
TTITLE12=_13_-_tatu_-_all_about_us
TTITLE13=_14_-_hilary_duff_-_wake_up
TTITLE14=_15_-_rachel_stevens_-_i_said_never_again_(but_here_we_are)
TTITLE15=Song 4 Lovers
TTITLE16=_17_-_friday_hill_-_baby_goodbye
TTITLE17=_18_-_simon_webbe_-_lay_your_hands
TTITLE18=_19_-_mariah_carey_-_we_belong_together
TTITLE19=_20_-_elton_john_-_electricity
TTITLE20=_21_-_katie_melua_-_nine_million_bicycles
TTITLE21=You Raise Me Up
EXTD=YEAR: 2005
EXTT0=
EXTT1=
EXTT2=
EXTT3=
EXTT4=
EXTT5=
EXTT6=
EXTT7=
EXTT8=
EXTT9=
EXTT10=
EXTT11=
EXTT12=
EXTT13=
EXTT14=
EXTT15=
EXTT16=
EXTT17=
EXTT18=
EXTT19=
EXTT20=
EXTT21=
PLAYORDER=
